<svg width="43" height="43" viewBox="0 0 43 43" fill="none" xmlns="http://www.w3.org/2000/svg">
<g clip-path="url(#clip0)">
<path d="M28.1699 2.84002C24.4802 1.52443 20.4832 1.33227 16.6843 2.28785C12.8854 3.24343 9.45508 5.30384 6.82695 8.20864C4.19881 11.1134 2.49087 14.7322 1.91902 18.6075C1.34717 22.4828 1.93708 26.4406 3.61419 29.9807C5.29129 33.5208 7.98029 36.4842 11.3413 38.4963C14.7023 40.5084 18.5844 41.4789 22.4968 41.2851C26.4093 41.0913 30.1765 39.742 33.3222 37.4076C36.4679 35.0731 38.8509 31.8585 40.1699 28.17C41.9319 23.2195 41.6579 17.7722 39.4082 13.0234C37.1585 8.27463 33.1168 4.61229 28.1699 2.84002Z" fill="#EFC44F"/>
<path d="M28.7401 1.25999C24.7362 -0.173095 20.3972 -0.386596 16.272 0.646486C12.1467 1.67957 8.42047 3.91283 5.56455 7.06381C2.70862 10.2148 0.851293 14.1419 0.227468 18.3486C-0.396357 22.5552 0.241345 26.8524 2.05992 30.6966C3.87849 34.5408 6.79625 37.7593 10.4442 39.9451C14.0921 42.1309 18.3063 43.1858 22.5537 42.9764C26.8012 42.7669 30.8912 41.3026 34.3064 38.7685C37.7215 36.2344 40.3085 32.7444 41.7401 28.74C43.6536 23.3717 43.3595 17.4636 40.9224 12.3119C38.4852 7.16012 34.1041 3.18549 28.7401 1.25999ZM2.84009 14.83C4.49141 10.228 7.78388 6.39779 12.0858 4.07427C16.3877 1.75075 21.3961 1.09755 26.1501 2.23999L12.8801 39.34C8.48127 37.2088 5.02398 33.5288 3.17118 29.0057C1.31838 24.4826 1.20048 19.4347 2.84009 14.83ZM17.6901 40.92L30.8701 4.06999C35.0416 6.31327 38.2703 9.97831 39.9696 14.3994C41.6689 18.8206 41.7263 23.7046 40.1311 28.1644C38.536 32.6242 35.3943 36.364 31.2765 38.7045C27.1587 41.0451 22.3381 41.8312 17.6901 40.92Z" fill="#E2B544"/>
</g>
<defs>
<clipPath id="clip0">
<rect width="43" height="43" fill="white"/>
</clipPath>
</defs>
</svg>
