<svg width="116" height="57" viewBox="0 0 116 57" fill="none" xmlns="http://www.w3.org/2000/svg">
<path d="M51 57L102 50V7L51 0V57Z" fill="#CD9C62"/>
<path d="M14 23.5V50L51 57V8.83002L39.67 20.83L14 23.5Z" fill="#D5A771"/>
<path d="M51 0L14 7V15.67L39.67 12L51 0Z" fill="#D5A771"/>
<path d="M39.67 12L14 15.67V23.5L39.67 20.83L51 10.83V0L39.67 12Z" fill="#CD9C62"/>
<path d="M51 0L39.67 12L0 17.67L14 7L51 0Z" fill="#E5BB8C"/>
<path d="M59.33 12L102 15.67V23.5L59.33 20.83L51 10.83V0L59.33 12Z" fill="#B78753"/>
<path d="M51 0L59.33 12L116 17.67L102 7L51 0Z" fill="#E5BB8C"/>
<path d="M46.5398 51.37H46.2498L34.4298 49.37C33.9097 49.2825 33.4374 49.0135 33.0969 48.6107C32.7564 48.2079 32.5696 47.6974 32.5698 47.17V31C32.57 30.6671 32.6922 30.3458 32.9133 30.097C33.1345 29.8482 33.4392 29.6892 33.7698 29.65L46.3798 28.12C46.6132 28.0917 46.8499 28.1132 47.0742 28.1832C47.2986 28.2533 47.5056 28.3701 47.6814 28.5261C47.8573 28.6821 47.998 28.8736 48.0942 29.0881C48.1905 29.3025 48.2401 29.5349 48.2398 29.77V49.67C48.2398 50.1209 48.0607 50.5533 47.7419 50.8721C47.4231 51.1909 46.9907 51.37 46.5398 51.37ZM33.8898 30.68C33.8014 30.6899 33.7198 30.7321 33.6608 30.7986C33.6017 30.8651 33.5693 30.9511 33.5698 31.04V47.12C33.569 47.4078 33.6684 47.6869 33.8508 47.9095C34.0333 48.1321 34.2875 48.2843 34.5698 48.34L46.3898 50.34C46.4904 50.3575 46.5936 50.3528 46.6922 50.3262C46.7908 50.2996 46.8824 50.2517 46.9605 50.186C47.0387 50.1202 47.1015 50.0382 47.1445 49.9456C47.1876 49.853 47.2099 49.7521 47.2098 49.65V29.81C47.2105 29.7162 47.1912 29.6233 47.1531 29.5375C47.1151 29.4517 47.0592 29.375 46.9891 29.3126C46.9191 29.2501 46.8366 29.2033 46.747 29.1753C46.6575 29.1472 46.563 29.1386 46.4698 29.15L33.8898 30.68Z" fill="#6F543D"/>
<path d="M28.1201 48.57H27.8401L17.6101 46.81C17.1818 46.7389 16.7928 46.5177 16.5125 46.1862C16.2322 45.8546 16.079 45.4342 16.0801 45V33C16.0798 32.5978 16.2274 32.2095 16.4947 31.909C16.7621 31.6084 17.1306 31.4166 17.5301 31.37L27.9301 30.19C28.1579 30.1647 28.3885 30.1877 28.6069 30.2576C28.8252 30.3275 29.0263 30.4426 29.1972 30.5955C29.368 30.7484 29.5046 30.9356 29.5982 31.1448C29.6917 31.3541 29.7401 31.5808 29.7401 31.81V46.94C29.7401 47.3732 29.5687 47.7889 29.2633 48.0962C28.9579 48.4034 28.5433 48.5774 28.1101 48.58L28.1201 48.57ZM17.6501 32.41C17.4945 32.4271 17.3505 32.5007 17.2455 32.6168C17.1404 32.7329 17.0816 32.8835 17.0801 33.04V45C17.0796 45.1962 17.1487 45.3862 17.275 45.5363C17.4013 45.6864 17.5767 45.7869 17.7701 45.82L28.0001 47.56C28.0917 47.5759 28.1857 47.5716 28.2755 47.5474C28.3653 47.5232 28.4488 47.4797 28.5201 47.42C28.5911 47.3616 28.6485 47.2884 28.6883 47.2055C28.728 47.1226 28.7491 47.032 28.7501 46.94V31.86C28.7508 31.7712 28.7324 31.6833 28.6962 31.6022C28.6599 31.5211 28.6067 31.4488 28.5401 31.39C28.4743 31.3303 28.3966 31.2852 28.3122 31.2576C28.2277 31.23 28.1384 31.2206 28.0501 31.23L17.6501 32.41Z" fill="#6F543D"/>
<path d="M27.9002 38.49C27.9002 36.16 25.6102 34.18 22.7802 34.07C19.9502 33.96 17.6602 35.77 17.6602 38.07L22.5602 38.26V41.03C22.5602 42.51 21.7902 43.74 20.8802 43.71C20.6478 43.6892 20.4236 43.6141 20.2256 43.4907C20.0276 43.3674 19.8613 43.1993 19.7402 43C19.7056 42.9425 19.6596 42.8926 19.605 42.8536C19.5504 42.8145 19.4883 42.7871 19.4227 42.7731C19.3571 42.759 19.2893 42.7586 19.2234 42.7718C19.1576 42.7851 19.0953 42.8117 19.0402 42.85C18.931 42.9336 18.8578 43.0556 18.8355 43.1912C18.8132 43.3269 18.8435 43.4659 18.9202 43.58C19.1177 43.9332 19.3987 44.2327 19.7386 44.4523C20.0785 44.6719 20.467 44.805 20.8702 44.84C22.3502 44.9 23.5502 43.24 23.5502 41.14V38.33L27.9002 38.49Z" fill="#6F543D"/>
<path d="M44.4898 36.84V31.74L36.3198 32.46V36.13C36.3396 37.1824 36.7229 38.1955 37.4046 38.9975C38.0863 39.7994 39.0244 40.3409 40.0598 40.53V44.95C40.0641 45.1857 40.0181 45.4195 39.9249 45.6361C39.8317 45.8526 39.6935 46.0468 39.5194 46.2057C39.3453 46.3646 39.1394 46.4847 38.9153 46.5578C38.6912 46.631 38.4541 46.6556 38.2198 46.63L37.2198 46.54V47.22L43.6398 47.96V47.28L42.8298 47.21C42.2739 47.1569 41.7563 46.9034 41.3736 46.4967C40.9909 46.0901 40.7691 45.5581 40.7498 45V40.59C41.2441 40.5981 41.7349 40.5066 42.193 40.3209C42.6511 40.1352 43.0671 39.8592 43.4161 39.5092C43.7652 39.1592 44.0402 38.7424 44.2246 38.2839C44.4091 37.8253 44.4993 37.3342 44.4898 36.84ZM44.1498 32.05V34.76L36.6598 35V32.83L44.1498 32.05Z" fill="#6F543D"/>
<path d="M99.6701 39.85H80.8301V49.5L99.6701 47.5V39.85Z" fill="#6F543D"/>
</svg>
