<svg width="49" height="49" viewBox="0 0 49 49" fill="none" xmlns="http://www.w3.org/2000/svg">
<g clip-path="url(#clip0)">
<path d="M45.3029 45.2997C52.3324 38.2702 48.6917 23.2326 37.1712 11.7121C25.6507 0.191628 10.6131 -3.44907 3.58363 3.58037C-3.4458 10.6098 0.194896 25.6475 11.7154 37.1679C23.2358 48.6884 38.2735 52.3291 45.3029 45.2997Z" fill="#BF4562"/>
<path d="M48.8099 34.09C48.2799 27.09 44.1899 18.74 37.1699 11.71C25.6499 0.190017 10.6099 -3.44998 3.57989 3.58002C2.97543 4.20335 2.44522 4.89463 1.99989 5.64002C1.9789 9.94528 2.82419 14.2108 4.48544 18.1827C6.1467 22.1546 8.58998 25.7517 11.6699 28.76C22.2999 39.43 37.9999 41.39 48.8099 34.09Z" fill="#E35470"/>
</g>
<defs>
<clipPath id="clip0">
<rect width="48.88" height="48.88" fill="white"/>
</clipPath>
</defs>
</svg>
