<svg width="26" height="26" viewBox="0 0 26 26" fill="none" xmlns="http://www.w3.org/2000/svg">
<g clip-path="url(#clip0)">
<path d="M21.0598 21.0585C25.6485 16.4698 25.6485 9.03016 21.0598 4.4415C16.4711 -0.147165 9.03144 -0.147165 4.44278 4.4415C-0.145879 9.03016 -0.145879 16.4698 4.44278 21.0585C9.03144 25.6472 16.4711 25.6472 21.0598 21.0585Z" fill="#F7F1E6"/>
<path d="M3.72999 3.73001C1.94245 5.51137 0.723751 7.78312 0.228212 10.2576C-0.267327 12.732 -0.0174134 15.2979 0.946306 17.6302C1.91002 19.9626 3.5442 21.9564 5.64188 23.3594C7.73956 24.7623 10.2064 25.5112 12.73 25.5112C15.2536 25.5112 17.7204 24.7623 19.8181 23.3594C21.9158 21.9564 23.5499 19.9626 24.5137 17.6302C25.4774 15.2979 25.7273 12.732 25.2318 10.2576C24.7362 7.78312 23.5175 5.51137 21.73 3.73001C19.3389 1.35089 16.103 0.0153198 12.73 0.0153198C9.35692 0.0153198 6.12108 1.35089 3.72999 3.73001ZM4.43999 21.05C2.3961 18.9967 1.18131 16.2617 1.02817 13.3686C0.875023 10.4755 1.79429 7.6276 3.60999 5.37001L20.13 21.89C17.8717 23.7085 15.0216 24.6295 12.1262 24.4763C9.23081 24.3231 6.49382 23.1066 4.43999 21.06V21.05ZM22.19 19.71L5.77999 3.31001C8.0392 1.63328 10.8258 0.824413 13.6317 1.03091C16.4375 1.2374 19.0757 2.4455 21.0651 4.43491C23.0545 6.42431 24.2626 9.06248 24.4691 11.8683C24.6756 14.6742 23.8667 17.4608 22.19 19.72V19.71Z" fill="#D5D5D5"/>
</g>
<defs>
<clipPath id="clip0">
<rect width="25.5" height="25.5" fill="white"/>
</clipPath>
</defs>
</svg>
