<svg width="65" height="65" viewBox="0 0 65 65" fill="none" xmlns="http://www.w3.org/2000/svg">
<g clip-path="url(#clip0)">
<path d="M43.41 21.49L60.41 38.49C63.3045 41.4032 64.9291 45.3432 64.9291 49.45C64.9291 53.5567 63.3045 57.4967 60.41 60.41C57.4967 63.3045 53.5567 64.9291 49.45 64.9291C45.3432 64.9291 41.4032 63.3045 38.49 60.41L21.49 43.41" fill="#D3C8BA"/>
<path d="M45.5301 53.31C47.8215 55.5856 50.7646 57.0914 53.9507 57.6183C57.1369 58.1451 60.4081 57.6669 63.3101 56.25C63.8199 55.2136 64.2123 54.1235 64.4801 53V52.87C64.5501 52.54 64.6201 52.2 64.6701 51.87V51.6C64.6701 51.27 64.7501 50.94 64.7801 50.6C64.7801 50.53 64.7801 50.46 64.7801 50.39C64.8252 49.7041 64.8252 49.0159 64.7801 48.33C64.7801 48.33 64.7801 48.23 64.7801 48.19C64.7801 47.93 64.7201 47.66 64.6901 47.4C64.6601 47.14 64.6901 47.02 64.6101 46.84C64.5301 46.66 64.5201 46.37 64.4701 46.13C64.4201 45.89 64.3701 45.69 64.3101 45.47C64.2501 45.25 64.2001 45.05 64.1401 44.84C64.0801 44.63 63.9401 44.25 63.8301 43.96C63.7201 43.67 63.7201 43.66 63.6601 43.51C63.5001 43.1233 63.3234 42.7433 63.1301 42.37C63.0601 42.23 62.9801 42.09 62.9001 41.95C62.8201 41.81 62.5901 41.41 62.4201 41.14L62.1401 40.71C61.9601 40.44 61.7601 40.18 61.5601 39.92L61.2801 39.56C60.9801 39.19 60.6601 38.83 60.2801 38.49L43.2801 21.49L28.5601 36.34L45.5301 53.31Z" fill="#E5DED3"/>
<path d="M43.41 21.49L26.41 4.48998C23.4968 1.59545 19.5568 -0.0291138 15.45 -0.0291138C11.3433 -0.0291138 7.4033 1.59545 4.49004 4.48998C1.59551 7.40323 -0.0290527 11.3432 -0.0290527 15.45C-0.0290527 19.5567 1.59551 23.4967 4.49004 26.41L21.49 43.41" fill="#BF4562"/>
<path d="M11.59 19.37C9.31598 17.0775 7.81207 14.1338 7.28703 10.9477C6.76198 7.76158 7.24184 4.49104 8.65999 1.59003C9.70594 1.07813 10.8062 0.685659 11.94 0.420026H12.07C12.4 0.350026 12.74 0.280026 13.07 0.230026H13.34C13.67 0.230026 14 0.150026 14.34 0.120026H14.55C15.2359 0.0749001 15.9241 0.0749001 16.61 0.120026H16.75L17.54 0.210026L18.1 0.290026L18.81 0.430026L19.47 0.590026L20.1 0.700026C20.4 0.790026 20.69 0.900026 20.98 1.01003L21.43 1.18003C21.8167 1.34003 22.1967 1.51669 22.57 1.71003L22.99 1.94003C23.26 2.09003 23.53 2.25003 23.8 2.42003L24.23 2.70003C24.5 2.88003 24.76 3.08003 25.02 3.28003L25.38 3.56003C25.75 3.86003 26.11 4.18003 26.45 4.56003L43.45 21.56L28.56 36.34L11.59 19.37Z" fill="#E35470"/>
</g>
<defs>
<clipPath id="clip0">
<rect width="64.9" height="64.9" fill="white"/>
</clipPath>
</defs>
</svg>
