<svg width="40" height="43" viewBox="0 0 40 43" fill="none" xmlns="http://www.w3.org/2000/svg">
    <path d="M29.2022 41.0886C28.5483 41.0878 27.9085 40.8958 27.3602 40.5356C26.8119 40.1754 26.3785 39.6625 26.1124 39.0588L26.0462 38.9088C22.0448 40.4972 17.5924 40.4703 13.6101 38.8338L13.512 39.0588C13.148 39.884 12.4744 40.5294 11.6395 40.8528C10.8046 41.1762 9.87682 41.1512 9.06016 40.7833C8.2435 40.4154 7.60491 39.7348 7.28487 38.8911C6.96483 38.0474 6.98955 37.1098 7.35361 36.2845L7.93659 34.9644C5.63741 32.5767 4.08625 29.5567 3.47726 26.2825C2.86827 23.0082 3.22851 19.6252 4.51288 16.5569C4.03856 16.4081 3.62388 16.1096 3.32964 15.7053C3.03539 15.301 2.87707 14.812 2.87788 14.3102C2.87776 14.1546 2.89285 13.9994 2.92293 13.8469C2.36264 12.9449 2.04603 11.9102 2.00465 10.846C1.96327 9.78182 2.19856 8.72525 2.68709 7.78157C2.62901 7.43257 2.65434 7.07459 2.76098 6.73749C2.86761 6.40039 3.05245 6.09394 3.30009 5.8437C3.54773 5.59345 3.85099 5.40666 4.18457 5.2989C4.51816 5.19114 4.8724 5.16554 5.21777 5.22423C6.15224 4.72954 7.1991 4.49212 8.25315 4.53583C9.30719 4.57955 10.3313 4.90286 11.2225 5.47327C11.3735 5.443 11.527 5.42775 11.6809 5.42775C12.2281 5.42716 12.7579 5.6219 13.1768 5.9776C13.5957 6.3333 13.8768 6.82711 13.9705 7.37186C15.1309 6.92477 16.337 6.60952 17.5664 6.43194V4.38071C17.5558 4.06048 17.6091 3.74136 17.723 3.44236C17.8369 3.14335 18.0093 2.87056 18.2297 2.64024C18.4501 2.40991 18.7141 2.22675 19.006 2.10166C19.2979 1.97657 19.6118 1.91211 19.9288 1.91211C20.2459 1.91211 20.5597 1.97657 20.8516 2.10166C21.1436 2.22675 21.4076 2.40991 21.628 2.64024C21.8484 2.87056 22.0207 3.14335 22.1347 3.44236C22.2486 3.74136 22.3019 4.06048 22.2912 4.38071V6.42391C23.5686 6.60779 24.8206 6.94026 26.0223 7.41471C26.1055 6.85928 26.3831 6.35244 26.8047 5.98633C27.2263 5.62023 27.7639 5.41917 28.3198 5.41971C28.4737 5.41974 28.6273 5.43498 28.7783 5.46524C29.6701 4.89699 30.6942 4.57583 31.7477 4.53399C32.8012 4.49216 33.8471 4.73113 34.7803 5.22691C34.9004 5.20711 35.0218 5.19726 35.1434 5.19745C35.4323 5.1971 35.7185 5.25435 35.9855 5.36592C36.2525 5.47749 36.4951 5.6412 36.6994 5.84766C36.9037 6.05411 37.0657 6.29927 37.1761 6.56909C37.2865 6.83891 37.3432 7.12809 37.3428 7.42006C37.3431 7.54384 37.3334 7.66744 37.3137 7.78961C37.8017 8.73296 38.0367 9.78902 37.9953 10.8527C37.954 11.9164 37.6376 12.9505 37.0778 13.8522C37.1079 14.0057 37.123 14.1618 37.1229 14.3182C37.1233 14.8431 36.9497 15.353 36.6299 15.7666C36.31 16.1801 35.8622 16.4734 35.358 16.5997C36.648 19.6994 36.9952 23.1171 36.3552 26.417C35.7152 29.7169 34.1171 32.7494 31.7647 35.1277L32.2788 36.2899C32.508 36.8087 32.6053 37.3771 32.5618 37.9435C32.5183 38.51 32.3354 39.0564 32.0297 39.5332C31.724 40.01 31.3052 40.4021 30.8114 40.6737C30.3176 40.9453 29.7645 41.088 29.2022 41.0886ZM12.0678 34.1423L13.5783 34.9724C15.5268 36.0398 17.7084 36.5986 19.9249 36.5978C22.0814 36.6048 24.2065 36.075 26.1124 35.0554L27.6096 34.252L27.5911 34.2092L28.5663 33.3657C29.9473 32.1732 31.0716 30.7072 31.8696 29.0581C32.6677 27.4091 33.1225 25.6122 33.2059 23.7785C33.2894 21.9447 32.9997 20.1132 32.3548 18.3971C31.7099 16.681 30.7235 15.1169 29.4566 13.8014L29.128 13.4586L28.8631 13.2069C26.5583 11.1057 23.5987 9.88554 20.4972 9.75782L19.9302 9.73372L19.3604 9.75782C16.2918 9.8876 13.3622 11.0864 11.0688 13.1506L10.7429 13.4372L10.4461 13.7398C9.17649 15.0409 8.18316 16.5903 7.5269 18.293C6.87065 19.9957 6.56529 21.8158 6.62955 23.6419C6.69381 25.4681 7.12631 27.2617 7.90058 28.913C8.67485 30.5643 9.77458 32.0384 11.1324 33.2452L12.0811 34.0914L12.0678 34.1423ZM6.19029 8.75899L6.00744 8.98928C5.96239 9.04551 5.92 9.10175 5.88025 9.15798C5.59719 9.58344 5.44491 10.084 5.44255 10.5966C5.44019 11.1093 5.58786 11.6112 5.867 12.0393L9.4179 8.43764C8.96497 8.13507 8.42871 7.98553 7.88632 8.01055C7.34394 8.03557 6.82339 8.23387 6.39963 8.57689L6.19029 8.75899ZM33.2195 11.1316L34.1205 12.042C34.4016 11.6152 34.5516 11.114 34.5516 10.6013C34.5516 10.0887 34.4016 9.58744 34.1205 9.16066C34.0834 9.10443 34.0384 9.04819 33.9933 8.99196L33.8105 8.76166L33.5879 8.58225C33.1641 8.23923 32.6436 8.04093 32.1012 8.01591C31.5588 7.99088 31.0225 8.14042 30.5696 8.443L33.2195 11.1316Z" fill="white"/>
    <path d="M13.3203 35.3304L11.9551 38.4039C11.7746 38.8076 11.4422 39.123 11.0307 39.2813C10.6191 39.4396 10.1618 39.4279 9.75887 39.2487C9.35678 39.0676 9.04252 38.7339 8.88481 38.3208C8.7271 37.9077 8.73877 37.4487 8.91726 37.0442L10.2825 33.9707" fill="#26789E"/>
    <path d="M26.4678 35.3304L27.8437 38.4039C28.0242 38.8076 28.3566 39.123 28.7681 39.2813C29.1797 39.4396 29.6369 39.4279 30.0399 39.2487C30.442 39.0676 30.7563 38.7339 30.914 38.3208C31.0717 37.9077 31.06 37.4487 30.8815 37.0442L29.5163 33.9707" fill="#26789E"/>
    <path d="M20.6498 4.38438C20.6498 4.02593 20.361 3.73535 20.0046 3.73535C19.6483 3.73535 19.3594 4.02593 19.3594 4.38438V23.8257C19.3594 24.1842 19.6483 24.4748 20.0046 24.4748C20.361 24.4748 20.6498 24.1842 20.6498 23.8257V4.38438Z" fill="#26789E"/>
    <path d="M5.14909 7.08345C4.96128 6.89493 4.65678 6.89492 4.46897 7.08345C4.28116 7.27197 4.28116 7.57763 4.46897 7.76616L13.1575 16.4878C13.3453 16.6763 13.6498 16.6763 13.8376 16.4878C14.0254 16.2992 14.0254 15.9936 13.8376 15.8051L5.14909 7.08345Z" fill="#26789E"/>
    <path d="M4.93084 7.5484C4.73258 7.74526 4.55363 7.96081 4.39648 8.19206C5.23015 7.62978 6.23258 7.37583 7.23222 7.47368C8.23185 7.57153 9.16652 8.01509 9.87627 8.72845L11.0465 7.55376C10.2357 6.73992 9.13637 6.28226 7.98977 6.28125C6.84318 6.28025 5.74303 6.73598 4.93084 7.5484Z" fill="#FCEA55"/>
    <path d="M4.40213 8.19332C3.84198 9.03016 3.58899 10.0364 3.68647 11.0398C3.78395 12.0433 4.22583 12.9815 4.93648 13.694L9.88458 8.72434C9.17401 8.01114 8.23849 7.56816 7.23828 7.47128C6.23808 7.3744 5.23544 7.62966 4.40213 8.19332Z" fill="#F3C621"/>
    <path d="M11.2577 7.34467L4.72859 13.8987C4.4907 14.1375 4.49028 14.5242 4.72765 14.7625C4.96502 15.0008 5.3503 15.0003 5.58819 14.7615L12.1173 8.20753C12.3552 7.96874 12.3557 7.58199 12.1183 7.34372C11.8809 7.10544 11.4956 7.10587 11.2577 7.34467Z" fill="#F3C621"/>
    <path d="M26.3191 15.8041C26.1313 15.9926 26.1313 16.2982 26.3191 16.4868C26.5069 16.6753 26.8114 16.6753 26.9992 16.4868L35.6878 7.76516C35.8756 7.57664 35.8756 7.27097 35.6878 7.08245C35.5 6.89392 35.1955 6.89392 35.0076 7.08245L26.3191 15.8041Z" fill="#26789E"/>
    <path d="M35.225 7.5484C35.4233 7.74526 35.6022 7.96081 35.7594 8.19206C34.9257 7.62978 33.9233 7.37583 32.9237 7.47368C31.924 7.57153 30.9894 8.01509 30.2796 8.72845L29.1094 7.55376C29.9202 6.73992 31.0195 6.28226 32.1661 6.28125C33.3127 6.28025 34.4128 6.73598 35.225 7.5484Z" fill="#FCEA55"/>
    <path d="M35.7539 8.19234C36.3141 9.02918 36.5671 10.0354 36.4696 11.0389C36.3721 12.0423 35.9302 12.9805 35.2196 13.693L30.2715 8.72337C30.9821 8.01016 31.9176 7.56718 32.9178 7.4703C33.918 7.37342 34.9206 7.62868 35.7539 8.19234Z" fill="#F3C621"/>
    <path d="M28.0391 8.20599L34.5683 14.76C34.8062 14.9988 35.1915 14.9992 35.4288 14.7609C35.6662 14.5227 35.6658 14.1359 35.4279 13.8971L28.8987 7.34312C28.6608 7.10433 28.2756 7.1039 28.0382 7.34218C27.8008 7.58045 27.8012 7.96719 28.0391 8.20599Z" fill="#F3C621"/>
    <path d="M20.0042 38.397C28.3662 38.397 35.145 31.5924 35.145 23.1985C35.145 14.8046 28.3662 8 20.0042 8C11.6421 8 4.86328 14.8046 4.86328 23.1985C4.86328 31.5924 11.6421 38.397 20.0042 38.397Z" fill="#0E5077"/>
    <path d="M20.0046 35.183C26.5989 35.183 31.9447 29.8169 31.9447 23.1975C31.9447 16.578 26.5989 11.2119 20.0046 11.2119C13.4102 11.2119 8.06445 16.578 8.06445 23.1975C8.06445 29.8169 13.4102 35.183 20.0046 35.183Z" fill="#FEF9DD"/>
    <path d="M14.215 28.4389C14.0209 28.6337 14.0209 28.9495 14.215 29.1443C14.4091 29.3391 14.7237 29.3391 14.9178 29.1443L20.2567 23.7851C20.4508 23.5903 20.4508 23.2744 20.2567 23.0796C20.0627 22.8848 19.748 22.8848 19.554 23.0796L14.215 28.4389Z" fill="#DC424D"/>
    <path d="M20.5037 17.6736C20.5037 17.3981 20.2812 17.1748 20.0067 17.1748C19.7323 17.1748 19.5098 17.3981 19.5098 17.6736V23.3272C19.5098 23.6027 19.7323 23.826 20.0067 23.826C20.2812 23.826 20.5037 23.6027 20.5037 23.3272V17.6736Z" fill="#DC424D"/>
    <path d="M20.0065 26.0236C21.5617 26.0236 22.8225 24.7581 22.8225 23.1969C22.8225 21.6357 21.5617 20.3701 20.0065 20.3701C18.4512 20.3701 17.1904 21.6357 17.1904 23.1969C17.1904 24.7581 18.4512 26.0236 20.0065 26.0236Z" fill="#DC424D"/>
    <path d="M20.0048 14.4413C20.4298 14.4413 20.7743 14.0955 20.7743 13.6689C20.7743 13.2423 20.4298 12.8965 20.0048 12.8965C19.5799 12.8965 19.2354 13.2423 19.2354 13.6689C19.2354 14.0955 19.5799 14.4413 20.0048 14.4413Z" fill="#DC424D"/>
    <path d="M13.698 16.8588C13.9067 16.6493 13.9067 16.3097 13.698 16.1002C13.4893 15.8907 13.151 15.8907 12.9423 16.1002C12.7336 16.3097 12.7336 16.6493 12.9423 16.8588C13.151 17.0682 13.4893 17.0682 13.698 16.8588Z" fill="#26789E"/>
    <path d="M10.5712 23.9833C10.9962 23.9833 11.3407 23.6375 11.3407 23.2109C11.3407 22.7843 10.9962 22.4385 10.5712 22.4385C10.1463 22.4385 9.80176 22.7843 9.80176 23.2109C9.80176 23.6375 10.1463 23.9833 10.5712 23.9833Z" fill="#DC424D"/>
    <path d="M13.7458 30.3012C13.9545 30.0917 13.9545 29.7521 13.7458 29.5426C13.5372 29.3331 13.1988 29.3331 12.9901 29.5426C12.7815 29.7521 12.7815 30.0917 12.9901 30.3012C13.1988 30.5106 13.5372 30.5106 13.7458 30.3012Z" fill="#26789E"/>
    <path d="M20.0751 33.454C20.5001 33.454 20.8446 33.1082 20.8446 32.6816C20.8446 32.255 20.5001 31.9092 20.0751 31.9092C19.6502 31.9092 19.3057 32.255 19.3057 32.6816C19.3057 33.1082 19.6502 33.454 20.0751 33.454Z" fill="#DC424D"/>
    <path d="M27.1394 30.2494C27.3481 30.0399 27.3481 29.7003 27.1394 29.4908C26.9307 29.2814 26.5924 29.2814 26.3837 29.4908C26.175 29.7003 26.175 30.0399 26.3837 30.2494C26.5924 30.4589 26.9307 30.4589 27.1394 30.2494Z" fill="#26789E"/>
    <path d="M29.5117 23.912C29.9366 23.912 30.2811 23.5662 30.2811 23.1396C30.2811 22.713 29.9366 22.3672 29.5117 22.3672C29.0867 22.3672 28.7422 22.713 28.7422 23.1396C28.7422 23.5662 29.0867 23.912 29.5117 23.912Z" fill="#DC424D"/>
    <path d="M27.0915 16.809C27.3002 16.5995 27.3002 16.2599 27.0915 16.0504C26.8829 15.8409 26.5445 15.8409 26.3359 16.0504C26.1272 16.2599 26.1272 16.5995 26.3359 16.809C26.5445 17.0184 26.8829 17.0184 27.0915 16.809Z" fill="#26789E"/>
</svg>