<svg width="35" height="35" viewBox="0 0 35 35" fill="none" xmlns="http://www.w3.org/2000/svg">
<g filter="url(#filter0_d)">
<path d="M26.5785 8.43589C26.3093 8.16605 25.9437 8.01441 25.5626 8.01441C25.1814 8.01441 24.8159 8.16605 24.5466 8.43589L17.5 15.4681L10.4534 8.42148C10.1841 8.15164 9.81861 8 9.43743 8C9.05625 8 8.69073 8.15164 8.4215 8.42148C7.8595 8.98348 7.8595 9.89134 8.4215 10.4533L15.4681 17.5L8.4215 24.5466C7.8595 25.1086 7.8595 26.0165 8.4215 26.5785C8.9835 27.1405 9.89135 27.1405 10.4534 26.5785L17.5 19.5318L24.5466 26.5785C25.1086 27.1405 26.0165 27.1405 26.5785 26.5785C27.1405 26.0165 27.1405 25.1086 26.5785 24.5466L19.5319 17.5L26.5785 10.4533C27.1261 9.90575 27.1261 8.98348 26.5785 8.43589Z" fill="#00D900"/>
<path d="M25.5626 7.01441C26.2094 7.01441 26.8296 7.27172 27.2864 7.72958C28.2237 8.66778 28.2235 10.2226 27.2856 11.1604L20.9461 17.5L27.2856 23.8395C28.2381 24.7921 28.2381 26.3331 27.2856 27.2856C26.3331 28.2381 24.7921 28.2381 23.8395 27.2856L17.5 20.9461L11.1605 27.2856L10.4534 26.5785L11.1605 27.2856C10.2079 28.2381 8.66692 28.2381 7.71439 27.2856C6.76187 26.3331 6.76187 24.7921 7.71439 23.8395L14.0539 17.5L7.71439 11.1604C6.76199 10.208 6.76187 8.66731 7.71402 7.71475M25.5626 7.01441L8.4215 8.42148M25.5626 7.01441C24.9162 7.01441 24.2963 7.27141 23.8396 7.72876L23.8403 7.72806L24.5466 8.43589L23.8387 7.72958M25.5626 7.01441L23.8387 7.72958M7.71402 7.71475C7.71414 7.71463 7.71427 7.7145 7.71439 7.71438L8.4215 8.42148M7.71402 7.71475C7.71388 7.71489 7.71374 7.71503 7.7136 7.71517L8.4215 8.42148M7.71402 7.71475C8.17081 7.25715 8.79084 7 9.43743 7C10.084 7 10.704 7.25714 11.1608 7.71472L11.1605 7.71438L10.4534 8.42147L11.1613 7.71517L17.5007 14.0546M8.4215 8.42148C8.69073 8.15164 9.05625 8 9.43743 8C9.81861 8 10.1841 8.15164 10.4534 8.42148L17.5 15.4681M17.5007 14.0546L16.7936 14.7603L17.5 15.4681M17.5007 14.0546L23.8387 7.72958M17.5007 14.0546L18.2071 14.761L17.5 15.4681M17.5 15.4681L23.8387 7.72958M15.4681 17.5L14.761 16.7929V18.2071L15.4681 17.5Z" stroke="white" stroke-width="2"/>
</g>
<defs>
<filter id="filter0_d" x="0" y="0" width="35" height="35" filterUnits="userSpaceOnUse" color-interpolation-filters="sRGB">
<feFlood flood-opacity="0" result="BackgroundImageFix"/>
<feColorMatrix in="SourceAlpha" type="matrix" values="0 0 0 0 0 0 0 0 0 0 0 0 0 0 0 0 0 0 127 0" result="hardAlpha"/>
<feOffset/>
<feGaussianBlur stdDeviation="3"/>
<feComposite in2="hardAlpha" operator="out"/>
<feColorMatrix type="matrix" values="0 0 0 0 0 0 0 0 0 0 0 0 0 0 0 0 0 0 0.25 0"/>
<feBlend mode="normal" in2="BackgroundImageFix" result="effect1_dropShadow"/>
<feBlend mode="normal" in="SourceGraphic" in2="effect1_dropShadow" result="shape"/>
</filter>
</defs>
</svg>
